<?xml version="1.0" standalone="no"?>
<!DOCTYPE svg PUBLIC "-//W3C//DTD SVG 20010904//EN"
 "http://www.w3.org/TR/2001/REC-SVG-20010904/DTD/svg10.dtd">
<svg version="1.0" xmlns="http://www.w3.org/2000/svg"
 width="512.000000pt" height="512.000000pt" viewBox="0 0 512.000000 512.000000"
 preserveAspectRatio="xMidYMid meet">

<g transform="translate(0.000000,512.000000) scale(0.100000,-0.100000)"
fill="#FF9B32" stroke="none">
<path d="M3825 4689 c-159 -237 -302 -454 -317 -482 -15 -29 -40 -88 -55 -132
-24 -72 -27 -94 -27 -225 -1 -166 12 -226 74 -355 71 -148 184 -261 335 -336
191 -94 394 -92 594 7 76 38 110 62 176 128 132 131 201 272 226 462 21 153
-18 350 -94 476 -29 46 -566 815 -609 870 -11 15 -47 -34 -303 -413z m498
-302 c92 -131 181 -262 197 -290 55 -100 75 -245 49 -369 -50 -238 -276 -409
-499 -378 -75 11 -170 55 -229 106 -122 106 -188 299 -161 469 18 118 38 153
328 578 113 167 114 168 130 145 9 -13 92 -130 185 -261z"/>
<path d="M1288 3948 c-387 -574 -724 -1076 -747 -1116 -191 -328 -284 -742
-251 -1122 22 -263 78 -474 184 -695 100 -207 187 -334 341 -494 248 -258 565
-430 915 -497 145 -28 428 -26 578 4 279 56 548 183 768 363 100 82 248 240
326 350 123 172 236 416 292 633 136 523 43 1108 -245 1547 -54 82 -1432 2043
-1449 2062 -4 5 -324 -461 -712 -1035z m1335 -291 c338 -479 637 -911 664
-958 100 -176 179 -419 204 -629 16 -139 6 -403 -20 -531 -49 -242 -134 -443
-273 -647 -72 -106 -272 -304 -383 -379 -254 -171 -511 -253 -795 -254 -187 0
-345 28 -508 91 -320 123 -628 409 -791 735 -135 272 -188 516 -178 830 9 270
61 483 177 710 60 118 1268 1918 1281 1909 4 -2 284 -397 622 -877z"/>
<path d="M1054 1582 c9 -107 46 -252 89 -344 156 -339 460 -526 898 -555 l99
-6 0 126 0 126 -42 5 c-24 2 -87 9 -140 15 -186 21 -371 109 -477 228 -86 97
-171 300 -171 412 0 62 -6 64 -141 69 l-122 5 7 -81z"/>
</g>
</svg>
