<?xml version="1.0" standalone="no"?>
<!DOCTYPE svg PUBLIC "-//W3C//DTD SVG 20010904//EN"
 "http://www.w3.org/TR/2001/REC-SVG-20010904/DTD/svg10.dtd">
<svg version="1.0" xmlns="http://www.w3.org/2000/svg"
 width="512.000000pt" height="512.000000pt" viewBox="0 0 512.000000 512.000000"
 preserveAspectRatio="xMidYMid meet">

<g transform="translate(0.000000,512.000000) scale(0.100000,-0.100000)"
fill="#FF9B32" stroke="none">
<path d="M2375 4900 c-446 -38 -864 -196 -1223 -464 -137 -102 -366 -331 -468
-468 -693 -930 -613 -2206 191 -3037 451 -466 1038 -714 1685 -714 270 0 493
35 730 113 360 119 652 301 926 574 311 312 511 661 618 1081 93 361 93 788 0
1150 -198 779 -778 1401 -1542 1654 -282 93 -630 135 -917 111z m299 -880 c20
-14 49 -43 64 -64 25 -36 27 -49 30 -145 l4 -107 64 -23 c135 -48 295 -183
372 -313 43 -73 82 -182 82 -234 0 -61 -44 -140 -97 -174 -124 -79 -269 -24
-323 121 -38 102 -88 157 -187 201 -70 32 -218 32 -288 0 -65 -30 -102 -66
-131 -127 -45 -95 -19 -205 66 -278 52 -44 62 -48 275 -92 286 -60 367 -98
500 -230 90 -89 151 -196 182 -315 22 -88 21 -245 -2 -330 -61 -223 -244 -414
-462 -485 l-51 -17 -4 -102 c-3 -93 -6 -107 -30 -142 -15 -21 -44 -50 -65 -64
-31 -21 -48 -25 -113 -25 -65 0 -82 4 -113 25 -21 14 -50 43 -65 64 -25 36
-27 49 -30 145 l-4 106 -61 24 c-200 76 -370 251 -436 448 -28 83 -26 128 5
192 87 174 323 150 394 -40 38 -102 88 -157 187 -201 37 -17 68 -22 138 -22
79 -1 97 2 147 27 160 78 205 262 99 396 -50 63 -108 86 -337 136 -168 36
-225 52 -289 84 -237 118 -378 342 -378 601 0 173 57 319 175 445 92 99 183
154 340 208 13 5 17 24 20 105 3 93 5 104 33 143 45 64 104 91 186 87 50 -3
75 -10 103 -28z"/>
</g>
</svg>
