<svg width="24" height="24" viewBox="0 0 24 24" fill="none" xmlns="http://www.w3.org/2000/svg">
<g clip-path="url(#clip0_7_25)">
<path d="M10.8516 0.0515633C7.10156 0.440626 3.81562 2.47969 1.81874 5.65781C-0.464069 9.28594 -0.600006 13.9875 1.46718 17.7422C2.40468 19.4484 3.74999 20.9109 5.40937 22.0219C6.52499 22.7672 8.22187 23.4797 9.51562 23.7375C10.5187 23.9391 10.8984 23.9766 12 23.9766C13.1062 23.9766 13.5609 23.9297 14.4937 23.7375C18.6187 22.875 22.0641 19.7906 23.3906 15.7594C23.8219 14.4563 23.9766 13.4578 23.9766 12C23.9766 10.5891 23.8266 9.59531 23.4328 8.36719C22.8516 6.53906 21.8859 4.95469 20.5172 3.56719C18.6469 1.67344 16.3312 0.506252 13.6641 0.112501C13.0875 0.0281258 11.4234 -0.00937271 10.8516 0.0515633ZM13.4531 1.7625C17.2828 2.31094 20.5078 4.96406 21.7641 8.60156C22.1719 9.7875 22.3219 10.6922 22.3266 11.9766C22.3266 13.6594 22.0125 15.0328 21.2859 16.5234C20.2594 18.6234 18.6234 20.2594 16.5234 21.2859C15.0328 22.0125 13.6875 22.3219 12 22.3219C10.3312 22.3266 8.86874 21.9891 7.43906 21.2766C4.32656 19.7203 2.28281 16.9031 1.75312 13.4297C1.64531 12.7266 1.64531 11.2734 1.75312 10.5703C2.07656 8.45625 2.94374 6.6 4.32187 5.08125C5.93437 3.30469 8.02031 2.17031 10.4062 1.78125C11.3016 1.63125 12.4969 1.62656 13.4531 1.7625Z" fill="#FF9B32"/>
<path d="M11.0109 2.53594C9.19216 2.72812 7.35466 3.50156 5.92966 4.68281L5.56873 4.97812L6.14529 5.55937C6.46404 5.87812 6.73591 6.14062 6.74998 6.14062C6.76404 6.14062 6.92341 6.01875 7.10154 5.87344C8.23123 4.96406 9.65154 4.36875 11.1 4.20469L11.5781 4.15312V3.31875V2.48437L11.475 2.48906C11.414 2.49375 11.2078 2.5125 11.0109 2.53594Z" fill="#FF9B32"/>
<path d="M12.4219 3.32344V4.15782L12.7875 4.19063C13.6547 4.27032 14.6484 4.55626 15.4828 4.97344C16.0453 5.25469 16.3641 5.45626 16.8703 5.85001L17.2594 6.15469L17.8453 5.57344L18.4266 4.99219L18.2297 4.81407C17.1141 3.81563 15.5297 3.02813 13.9781 2.70001C13.5609 2.61094 12.6516 2.48438 12.4406 2.48438C12.4313 2.48438 12.4219 2.85938 12.4219 3.32344Z" fill="#FF9B32"/>
<path d="M11.1797 5.02969C10.4625 5.09531 9.54844 5.37188 8.82656 5.7375C8.48438 5.90625 7.77656 6.37031 7.5 6.60469L7.33594 6.74531L7.81875 7.23281C8.27344 7.69688 8.32031 7.77188 8.29688 7.99219C8.2875 8.11406 8.11406 8.2875 7.99219 8.29688C7.77188 8.32031 7.69688 8.27344 7.23281 7.81406L6.74531 7.33594L6.60469 7.5C6.37031 7.77656 5.90625 8.48438 5.7375 8.82656C5.37188 9.54844 5.1 10.4531 5.025 11.1891L4.9875 11.5781H5.6625H6.3375L6.47344 11.7141C6.65625 11.9016 6.65625 12.0984 6.47344 12.2859L6.3375 12.4219H5.65313H4.96875L4.9875 12.525C5.00156 12.5859 5.025 12.7594 5.03906 12.9141C5.10469 13.5656 5.38594 14.4797 5.7375 15.1781C5.90625 15.5156 6.375 16.2234 6.60469 16.5L6.74531 16.6641L7.23281 16.1813C7.67344 15.75 7.73906 15.7031 7.89375 15.7031C8.13281 15.7031 8.29688 15.8719 8.29688 16.1109C8.29688 16.2797 8.23594 16.3453 6.93281 17.6531L5.56875 19.0219L5.92969 19.3172C9.4875 22.2563 14.55 22.2422 18.1125 19.2891L18.4313 19.0219L17.0672 17.6531C15.7313 16.3125 15.7031 16.2797 15.7031 16.0969C15.7031 15.8484 15.8484 15.7031 16.1016 15.7031C16.2656 15.7031 16.3219 15.7406 16.7672 16.1813L17.2547 16.6641L17.3953 16.5C18.2016 15.5438 18.8484 14.0625 18.9609 12.9141C18.9797 12.7313 19.0031 12.5484 19.0125 12.5016C19.0359 12.4266 18.9844 12.4219 18.3516 12.4219H17.6625L17.5266 12.2859C17.3438 12.0984 17.3438 11.9016 17.5266 11.7141L17.6625 11.5781H18.3375H19.0125L18.975 11.2125C18.9 10.4625 18.6328 9.55781 18.2813 8.85938C18.0938 8.48906 17.6391 7.78594 17.3953 7.5L17.2547 7.33594L16.7672 7.81406C16.3266 8.25 16.2609 8.29688 16.1063 8.29688C15.8719 8.29688 15.7031 8.12813 15.7031 7.89375C15.7031 7.73906 15.75 7.67344 16.1859 7.23281L16.6641 6.74531L16.5 6.60469C15.4828 5.75156 14.0859 5.15625 12.7875 5.025L12.4219 4.9875V5.6625V6.3375L12.2859 6.47344C12.1125 6.64219 11.9156 6.65156 11.7328 6.49688C11.6016 6.38438 11.6016 6.37969 11.5781 5.68594L11.5547 4.99219L11.1797 5.02969ZM14.4891 6.35156C14.6906 6.48281 14.8125 6.71719 14.8125 6.97969C14.8125 7.0875 14.6203 8.10938 14.3859 9.24844C13.9969 11.1469 13.9641 11.3391 14.0109 11.5453C14.2266 12.5063 13.7531 13.4578 12.8438 13.8938C12.5578 14.0297 12.5063 14.0391 12 14.0391C11.4938 14.0391 11.4422 14.0297 11.1563 13.8938C10.7719 13.7063 10.4859 13.4578 10.2656 13.1156C9.67031 12.2016 9.91875 10.9453 10.8141 10.3266C11.0391 10.1719 11.1656 9.99844 12.2156 8.37188C12.8484 7.3875 13.4156 6.53438 13.4719 6.47344C13.7344 6.17813 14.1516 6.12656 14.4891 6.35156Z" fill="#FF9B32"/>
<path d="M13.05 8.60625C12.375 9.65157 12.2156 9.91875 12.2765 9.94688C12.3187 9.96094 12.4547 10.0031 12.5765 10.0359C12.6984 10.0641 12.914 10.1625 13.0547 10.2469C13.1953 10.3313 13.3125 10.3922 13.3125 10.3875C13.3125 10.3781 13.4484 9.70313 13.6172 8.88282C13.7859 8.0625 13.9172 7.36875 13.9078 7.34532C13.9031 7.32188 13.514 7.88907 13.05 8.60625Z" fill="#FF9B32"/>
<path d="M11.4469 10.9031C11.0109 11.1187 10.7812 11.4984 10.7812 12C10.7812 12.7125 11.2875 13.2188 12 13.2188C12.7125 13.2188 13.2141 12.7125 13.2188 11.9953C13.2188 11.2875 12.7125 10.7859 11.9953 10.7812C11.7609 10.7812 11.6344 10.8094 11.4469 10.9031ZM12.3047 11.7188C12.4359 11.85 12.4313 12.1547 12.2906 12.2906C12.1594 12.4266 11.8641 12.4359 11.7234 12.3094C11.5219 12.1266 11.5688 11.7656 11.8125 11.6391C11.9578 11.5594 12.1828 11.5969 12.3047 11.7188Z" fill="#FF9B32"/>
<path d="M4.68281 5.92969C3.48281 7.37812 2.72344 9.19219 2.53594 11.0578C2.50781 11.325 2.48438 11.55 2.48438 11.5594C2.48438 11.5687 2.85938 11.5781 3.32344 11.5781H4.15781L4.19063 11.2125C4.27031 10.3453 4.55625 9.35156 4.97344 8.51719C5.25469 7.95469 5.45625 7.63594 5.85 7.12969L6.15469 6.74062L5.56875 6.15469L4.97813 5.56406L4.68281 5.92969Z" fill="#FF9B32"/>
<path d="M18.4312 6.15469L17.85 6.73594L18.2484 7.26094C19.1015 8.39062 19.6922 9.87656 19.8094 11.2125L19.8422 11.5781H20.6812H21.525L21.4969 11.3531C21.4828 11.2312 21.4594 11.0062 21.4406 10.8516C21.3562 10.0312 21.014 8.83125 20.6297 7.99687C20.2828 7.24219 19.6969 6.3375 19.1906 5.775L19.0078 5.57344L18.4312 6.15469Z" fill="#FF9B32"/>
<path d="M2.48438 12.4406C2.48438 12.45 2.50781 12.675 2.53594 12.9422C2.72344 14.8078 3.48281 16.6219 4.68281 18.0703L4.97813 18.4312L5.55938 17.8547C5.87813 17.5359 6.14063 17.2641 6.14063 17.25C6.14063 17.2359 6.00469 17.0578 5.83594 16.8516C5.23125 16.1016 4.72031 15.0984 4.43438 14.1C4.31719 13.6922 4.17188 12.8437 4.17188 12.5672V12.4219H3.32813C2.86406 12.4219 2.48438 12.4312 2.48438 12.4406Z" fill="#FF9B32"/>
<path d="M19.8281 12.5672C19.8281 12.8437 19.6828 13.6922 19.5656 14.1C19.2797 15.0984 18.7687 16.1016 18.1641 16.8516C17.9953 17.0578 17.8594 17.2359 17.8594 17.25C17.8594 17.2641 18.1219 17.5359 18.4406 17.8547L19.0219 18.4312L19.3172 18.0703C20.4609 16.6875 21.2672 14.8172 21.4406 13.1484C21.4594 12.9937 21.4828 12.7687 21.4969 12.6422L21.525 12.4219H20.6766H19.8281V12.5672Z" fill="#FF9B32"/>
</g>
<defs>
<clipPath id="clip0_7_25">
<rect width="24" height="24" fill="white"/>
</clipPath>
</defs>
</svg>
