<?xml version="1.0" standalone="no"?>
<!DOCTYPE svg PUBLIC "-//W3C//DTD SVG 20010904//EN"
 "http://www.w3.org/TR/2001/REC-SVG-20010904/DTD/svg10.dtd">
<svg version="1.0" xmlns="http://www.w3.org/2000/svg"
 width="512.000000pt" height="512.000000pt" viewBox="0 0 512.000000 512.000000"
 preserveAspectRatio="xMidYMid meet">

<g transform="translate(0.000000,512.000000) scale(0.100000,-0.100000)"
fill="#FF9B32" stroke="none">
<path d="M1680 4655 l0 -465 255 0 255 0 0 -234 0 -235 -68 -45 c-37 -25 -87
-66 -112 -91 l-44 -45 -463 0 -463 0 0 -600 0 -600 408 0 407 -1 34 -49 c38
-57 156 -172 224 -219 155 -107 339 -162 537 -162 303 0 569 131 757 373 l44
58 185 0 c102 0 194 -4 204 -10 33 -18 40 -66 40 -287 l0 -213 543 2 542 3 3
320 c2 176 -2 370 -8 432 -24 257 -121 464 -300 643 -176 177 -387 276 -638
300 -59 5 -236 10 -394 10 l-286 0 -54 49 c-29 26 -88 72 -130 100 l-78 52 0
225 0 224 255 0 255 0 0 465 0 465 -955 0 -955 0 0 -465z"/>
<path d="M80 2935 l0 -1115 330 0 330 0 0 1115 0 1115 -330 0 -330 0 0 -1115z"/>
<path d="M4338 1483 c-319 -396 -488 -704 -488 -891 0 -160 60 -303 174 -416
233 -233 600 -234 831 -2 148 149 208 354 160 541 -35 132 -158 351 -323 575
-105 141 -242 310 -252 310 -4 0 -50 -53 -102 -117z"/>
</g>
</svg>
