<svg width="24" height="24" viewBox="0 0 24 24" fill="none" xmlns="http://www.w3.org/2000/svg">
<g clip-path="url(#clip0_20_1330)">
<path d="M11.6719 1.03594C11.311 1.06406 10.9594 1.17656 10.5703 1.37344C10.3313 1.49531 9.65159 2.15625 5.80315 5.99062C2.64846 9.14062 1.2844 10.5328 1.19534 10.6922C0.796901 11.4281 1.08753 12.4078 1.83284 12.8203C2.0719 12.9516 2.11878 12.9609 2.78909 12.9844L3.49221 13.0078L3.51565 17.0391C3.5344 20.6344 3.54846 21.0891 3.61409 21.2625C3.96096 22.1109 4.50471 22.6453 5.27346 22.8891L5.60159 22.9922H12H18.3985L18.7266 22.8891C19.4953 22.6453 20.0391 22.1109 20.386 21.2625C20.4516 21.0891 20.4657 20.6344 20.4844 17.0391L20.5078 13.0078L21.1875 12.9844C21.75 12.9656 21.9047 12.9422 22.0782 12.8625C22.7297 12.5531 23.1047 11.8406 22.9688 11.1656C22.936 11.0203 22.861 10.8 22.7953 10.6828C22.7157 10.5375 21.2578 9.04687 18.1969 5.99062C14.0672 1.875 13.6828 1.50469 13.3828 1.35C12.8485 1.07344 12.3141 0.974998 11.6719 1.03594ZM12.7969 2.17969C13.0875 2.30625 13.3313 2.54531 17.475 6.675C19.8797 9.075 21.8813 11.0953 21.9188 11.1656C22.05 11.4187 21.961 11.7891 21.736 11.9156C21.6657 11.9578 21.3328 11.9859 20.7094 12L19.7813 12.0234L19.6547 12.1547L19.5235 12.2812L19.5 16.5844L19.4766 20.8828L19.3453 21.15C19.2047 21.4406 18.9563 21.6891 18.6469 21.8531C18.45 21.9609 18.4172 21.9609 16.725 21.975L15.0047 21.9891L14.9907 19.0453L14.9766 16.1016L14.8172 15.8062C14.6391 15.4781 14.4938 15.3375 14.1375 15.15L13.8985 15.0234H12H10.1016L9.86721 15.1406C9.56721 15.2859 9.28596 15.5672 9.14065 15.8672L9.02346 16.1016L9.0094 19.0453L8.99534 21.9891L7.27503 21.975C5.58284 21.9609 5.55003 21.9609 5.35315 21.8531C5.04378 21.6891 4.79534 21.4406 4.65471 21.15L4.52346 20.8828L4.50003 16.5844L4.47659 12.2812L4.34534 12.1547L4.21878 12.0234L3.29065 12C2.66721 11.9859 2.3344 11.9578 2.26409 11.9156C2.03909 11.7891 1.95003 11.4187 2.08128 11.1656C2.11878 11.0953 4.10628 9.08437 6.50159 6.69375C9.60471 3.59531 10.9125 2.325 11.0625 2.24531C11.4422 2.05781 11.6297 2.01562 12.0703 2.02969C12.4125 2.04375 12.5485 2.07187 12.7969 2.17969ZM13.711 16.0594C14.0203 16.2047 14.0157 16.1391 14.0157 19.2141V21.9844H12H9.9844V19.2141C9.9844 16.1531 9.97971 16.2094 10.2797 16.0594C10.5047 15.9516 13.4813 15.9469 13.711 16.0594Z" fill="#fff"/>
<mask id="path-2-inside-1_20_1330" fill="white">
<path d="M-28 1H52V49H-28V1Z"/>
</mask>
</g>
<defs>
<linearGradient id="paint0_linear_20_1330" x1="-28" y1="25" x2="52" y2="25" gradientUnits="userSpaceOnUse">
<stop offset="0.505208" stop-color="#F4801F"/>
<stop offset="1" stop-color="#F4801F" stop-opacity="0"/>
</linearGradient>
<clipPath id="clip0_20_1330">
<rect width="24" height="24" fill="white"/>
</clipPath>
</defs>
</svg>
