<svg width="24" height="24" viewBox="0 0 24 24" fill="none" xmlns="http://www.w3.org/2000/svg">
<path d="M2.85938 1.575C2.71875 1.6125 2.51719 1.69688 2.40938 1.75781C2.12344 1.92656 1.75781 2.34844 1.63125 2.6625L1.52344 2.92969V7.125V11.3203L1.63125 11.5875C1.75781 11.9016 2.11406 12.3141 2.41406 12.4875C2.86406 12.7547 2.88281 12.7547 6.49688 12.7406L9.82031 12.7266L10.0875 12.6188C10.4016 12.4922 10.8141 12.1359 10.9875 11.8406C11.2547 11.3859 11.25 11.4328 11.25 7.125C11.25 2.81719 11.2547 2.86406 10.9875 2.40938C10.8141 2.11406 10.4016 1.75781 10.0875 1.63125L9.82031 1.52344L6.46875 1.51406C3.62813 1.50469 3.07969 1.51406 2.85938 1.575ZM9.63281 3.11719L9.75 3.22969V7.125V11.0203L9.63281 11.1328L9.52031 11.25H6.375H3.22969L3.11719 11.1328L3 11.0203V7.125V3.22969L3.11719 3.11719L3.22969 3H6.375H9.52031L9.63281 3.11719Z" fill="white"/>
<path d="M14.1094 1.575C13.9688 1.6125 13.7672 1.69688 13.6594 1.75781C13.3734 1.92656 13.0078 2.34844 12.8813 2.6625L12.7734 2.92969V5.625V8.32031L12.8813 8.5875C13.0078 8.90156 13.3641 9.31406 13.6641 9.4875C14.1141 9.75469 14.1328 9.75469 17.7469 9.74063L21.0703 9.72656L21.3375 9.61875C21.6516 9.49219 22.0641 9.13594 22.2375 8.84063C22.4906 8.40469 22.5 8.29688 22.5 5.625C22.5 2.95313 22.4906 2.84531 22.2375 2.40938C22.0641 2.11406 21.6516 1.75781 21.3375 1.63125L21.0703 1.52344L17.7188 1.51406C14.8781 1.50469 14.3297 1.51406 14.1094 1.575ZM20.8828 3.11719L21 3.22969V5.625V8.02031L20.8828 8.13281L20.7703 8.25H17.625H14.4797L14.3672 8.13281L14.25 8.02031V5.625V3.22969L14.3672 3.11719L14.4797 3H17.625H20.7703L20.8828 3.11719Z" fill="white"/>
<path d="M14.1094 11.325C13.9688 11.3625 13.7672 11.4469 13.6594 11.5078C13.3734 11.6766 13.0078 12.0984 12.8813 12.4125L12.7734 12.6797V16.875V21.0703L12.8813 21.3375C13.0078 21.6516 13.3641 22.0641 13.6641 22.2375C14.1141 22.5047 14.1328 22.5047 17.7469 22.4906L21.0703 22.4766L21.3375 22.3688C21.6516 22.2422 22.0641 21.8859 22.2375 21.5906C22.5047 21.1359 22.5 21.1828 22.5 16.875C22.5 12.5672 22.5047 12.6141 22.2375 12.1594C22.0641 11.8641 21.6516 11.5078 21.3375 11.3813L21.0703 11.2734L17.7188 11.2641C14.8781 11.2547 14.3297 11.2641 14.1094 11.325ZM20.8828 12.8672L21 12.9797V16.875V20.7703L20.8828 20.8828L20.7703 21H17.625H14.4797L14.3672 20.8828L14.25 20.7703V16.875V12.9797L14.3672 12.8672L14.4797 12.75H17.625H20.7703L20.8828 12.8672Z" fill="white"/>
<path d="M2.85938 14.325C2.71875 14.3625 2.51719 14.4469 2.40938 14.5078C2.12344 14.6766 1.75781 15.0984 1.63125 15.4125L1.52344 15.6797V18.375V21.0703L1.63125 21.3375C1.75781 21.6516 2.11406 22.0641 2.41406 22.2375C2.86406 22.5047 2.88281 22.5047 6.49688 22.4906L9.82031 22.4766L10.0875 22.3688C10.4016 22.2422 10.8141 21.8859 10.9875 21.5906C11.2406 21.1547 11.25 21.0469 11.25 18.375C11.25 15.7031 11.2406 15.5953 10.9875 15.1594C10.8141 14.8641 10.4016 14.5078 10.0875 14.3813L9.82031 14.2734L6.46875 14.2641C3.62813 14.2547 3.07969 14.2641 2.85938 14.325ZM9.63281 15.8672L9.75 15.9797V18.375V20.7703L9.63281 20.8828L9.52031 21H6.375H3.22969L3.11719 20.8828L3 20.7703V18.375V15.9797L3.11719 15.8672L3.22969 15.75H6.375H9.52031L9.63281 15.8672Z" fill="white"/>
</svg>
